# xmcd
#
# Track frame offsets:
#	150
#	14062
#	35397
#	49162
#	64545
#	81279
#	96075
#	111962
#	127257
#	142082
#
# Disc length: 2178 seconds
#
# Revision: 2
# Processed by: cddbd v1.5.1PL2 Copyright (c) Steve Scherf et al.
# Submitted via: audiograbber 1.83.01
#
DISCID=9008800a
DTITLE=Various Artist - Feel Good Rock
DYEAR=1997
DGENRE=Classic Rock
TTITLE0=The Edgar Winter Group - Free Ride
TTITLE1=Boston - More Than a Feeling
TTITLE2=Matthew Wilder - Break My Stride
TTITLE3=David Essex - Rock On
TTITLE4=Rick Derringer - Rock And Roll, Hoochie Koo
TTITLE5=The Hollies - Long Cool Woman (in a Black Dress)
TTITLE6=Eddie Money - Baby Hold On
TTITLE7=The Bangles - Walk Like an Egyptian
TTITLE8=Argent - Hold Your Head Up
TTITLE9=The Edgar Winter Group - Frankenstein
EXTD=
EXTT0=
EXTT1=
EXTT2=
EXTT3=
EXTT4=
EXTT5=
EXTT6=
EXTT7=
EXTT8=
EXTT9=
PLAYORDER=
